<svg width="200" height="25" viewBox="0 0 200 25" fill="none" xmlns="http://www.w3.org/2000/svg">
<path fill-rule="evenodd" clip-rule="evenodd" d="M86.7118 5.09501C87.3895 5.62549 87.7731 6.36976 87.8624 7.32779H92.4985C92.4762 5.87886 92.1113 4.60412 91.4037 3.50356C90.6962 2.40301 89.7057 1.54394 88.4322 0.926367C87.1661 0.308789 85.684 0 83.986 0C82.3177 0 80.8282 0.308789 79.5175 0.926367C78.2067 1.54394 77.1752 2.40301 76.423 3.50356C75.6782 4.60412 75.3096 5.89074 75.317 7.36342C75.3096 9.16073 75.8644 10.5899 76.9816 11.6508C78.0987 12.7118 79.6217 13.4917 81.5506 13.9905L84.0418 14.6556C84.876 14.8694 85.5798 15.1069 86.1532 15.3682C86.7341 15.6295 87.1735 15.9462 87.4714 16.3183C87.7768 16.6904 87.9295 17.1496 87.9295 17.696C87.9295 18.2819 87.7619 18.8005 87.4268 19.2518C87.0916 19.7031 86.6187 20.0554 86.008 20.3088C85.4047 20.5622 84.6935 20.6888 83.8743 20.6888C83.0402 20.6888 82.2917 20.5542 81.6288 20.285C80.9734 20.0079 80.4484 19.6002 80.0537 19.0618C79.6664 18.5154 79.4467 17.8345 79.3946 17.019H74.7138C74.751 18.7688 75.1495 20.2375 75.9091 21.4252C76.6762 22.6049 77.7412 23.4956 79.1041 24.0974C80.4745 24.6991 82.0831 25 83.9301 25C85.792 25 87.3821 24.7031 88.7003 24.1093C90.0259 23.5075 91.0388 22.6643 91.7389 21.5796C92.4464 20.4869 92.8039 19.1964 92.8113 17.7078C92.8039 16.6944 92.6289 15.7957 92.2863 15.0119C91.9511 14.228 91.4782 13.5471 90.8675 12.9691C90.2568 12.3911 89.5344 11.9042 88.7003 11.5083C87.8662 11.1124 86.9501 10.7957 85.9521 10.5582L83.8966 10.0356C83.3976 9.91687 82.9284 9.77435 82.489 9.60808C82.0496 9.43389 81.6624 9.23199 81.3272 9.00238C80.9921 8.76485 80.7277 8.48377 80.534 8.15915C80.3479 7.83452 80.2622 7.45447 80.2771 7.019C80.2771 6.49644 80.4186 6.0293 80.7016 5.61758C80.9921 5.20586 81.4091 4.8852 81.9528 4.65558C82.4965 4.41805 83.163 4.29929 83.9525 4.29929C85.1143 4.29929 86.0341 4.56453 86.7118 5.09501ZM52.6309 0.33252H46.6654V24.6556H51.3574V8.76482H51.5473L57.4681 24.5368H60.6631L66.5839 8.82421H66.7738V24.6556H71.4657V0.33252H65.5003L59.1996 16.6746H58.9315L52.6309 0.33252ZM27.0765 24.6556H21.893L29.7911 0.33252H36.0247L43.9117 24.6556H38.7282L37.0343 19.1092H28.7737L27.0765 24.6556ZM32.9973 5.89071L35.8083 15.095H30.002L32.8185 5.89071H32.9973ZM19.1365 24.6556V0.33254H14.3216V15.6295H14.1206L4.2451 0.33254H0V24.6556H4.83718V9.34679H5.00475L14.9584 24.6556H19.1365ZM200 18.0671C200 19.115 199.79 19.9623 199.371 20.6089C198.951 21.2555 198.228 21.8909 197.2 22.5152C196.508 22.9611 195.711 23.3067 194.809 23.552C193.908 23.7749 192.995 23.8864 192.072 23.8864C191.506 23.8864 190.846 23.7749 190.091 23.552C189.357 23.3067 188.759 23.0726 188.297 22.8496L187.763 22.348C186.819 21.523 186.158 20.8653 185.781 20.3748C185.424 19.862 185.246 19.2377 185.246 18.5019C185.246 17.9222 185.372 17.4874 185.623 17.1976C185.875 16.9077 186.284 16.7628 186.85 16.7628C187.144 16.7628 187.417 16.8631 187.668 17.0638C187.92 17.2645 188.14 17.5432 188.329 17.8999C188.853 18.8809 189.472 19.6056 190.185 20.0738C190.919 20.5197 191.779 20.7427 192.765 20.7427C193.687 20.7427 194.621 20.4417 195.564 19.8397C196.34 19.3268 196.728 18.8252 196.728 18.3347C196.728 17.4651 196.361 16.7405 195.627 16.1608C194.914 15.5811 193.887 15.0571 192.544 14.5889C191.726 14.2768 190.5 13.6971 188.864 12.8498C187.752 12.2701 186.924 11.5567 186.378 10.7094C185.833 9.86215 185.561 8.9703 185.561 8.03386C185.561 7.18661 185.833 6.36165 186.378 5.55899C186.945 4.73404 187.626 4.12089 188.423 3.71956C188.843 3.4966 189.514 3.26249 190.437 3.01724C191.359 2.74968 192.051 2.61591 192.513 2.61591C193.373 2.61591 194.117 2.72739 194.746 2.95035C195.376 3.15101 195.994 3.44086 196.602 3.8199C197.525 4.3773 198.207 4.87896 198.647 5.32488C199.088 5.77081 199.308 6.32821 199.308 6.99709C199.308 7.39842 199.161 7.75516 198.867 8.06731C198.595 8.37945 198.112 8.53553 197.42 8.53553C197.253 8.53553 197.085 8.45749 196.917 8.30142C196.749 8.14534 196.54 7.91123 196.288 7.59909C195.952 7.13087 195.627 6.81872 195.313 6.66265C195.229 6.64036 194.883 6.49543 194.275 6.22788C193.687 5.96032 192.953 5.82655 192.072 5.82655C191.234 5.82655 190.489 6.03836 189.839 6.46199C189.189 6.86332 188.864 7.45416 188.864 8.23453C188.864 9.01489 189.524 9.65033 190.846 10.1408C192.251 10.7205 193.415 11.2222 194.337 11.6458C195.281 12.0695 196.194 12.5711 197.074 13.1508C198.081 13.7974 198.815 14.4774 199.276 15.1909C199.759 15.9044 200 16.8631 200 18.0671ZM168.304 2.88342C166.983 2.88342 166.322 3.36279 166.322 4.32152C166.322 5.14648 166.553 5.68159 167.014 5.92684C167.476 6.1498 168.294 6.26128 169.468 6.26128L173.149 6.22784C173.023 9.08174 172.96 10.7874 172.96 11.3448C172.96 12.1698 173.002 13.5633 173.086 15.5253C173.17 17.8887 173.212 19.8619 173.212 21.4449C173.212 22.2476 173.348 22.8496 173.621 23.2509C173.893 23.63 174.418 23.8195 175.194 23.8195C176.179 23.8195 176.672 23.3624 176.672 22.4483L176.609 21.4784C176.42 18.0671 176.326 14.7004 176.326 11.3782C176.326 8.59123 176.357 6.82984 176.42 6.09406C176.714 6.07177 177.144 6.06062 177.71 6.06062C178.297 6.06062 178.979 6.13866 179.755 6.29473C180.636 6.42851 181.307 6.49539 181.768 6.49539C182.188 6.49539 182.544 6.32817 182.838 5.99373C183.132 5.63699 183.278 5.21337 183.278 4.72285C183.278 4.36612 183.205 4.10971 183.058 3.95364C182.911 3.79756 182.723 3.66379 182.492 3.55231C181.695 3.15098 180.72 2.92802 179.566 2.88342C179.378 2.88342 178.927 2.90572 178.214 2.95031C177.165 3.0395 176.274 3.08409 175.54 3.08409C174.638 3.08409 173.306 3.0395 171.544 2.95031C169.95 2.90572 168.87 2.88342 168.304 2.88342ZM160.163 5.02389C160.163 4.3773 160.299 3.8199 160.572 3.35168C160.865 2.86116 161.295 2.61591 161.861 2.61591C162.344 2.61591 162.774 2.71624 163.151 2.9169C163.529 3.11757 163.717 3.45201 163.717 3.92023C163.717 4.83437 163.675 6.1164 163.592 7.76631C163.508 9.37163 163.466 10.5645 163.466 11.3448C163.466 12.5711 163.508 14.2099 163.592 16.2611C163.675 18.2232 163.717 19.6613 163.717 20.5754C163.717 21.3112 163.707 21.8575 163.686 22.2142C163.686 22.5709 163.497 22.9277 163.12 23.2844C162.763 23.6189 162.207 23.7861 161.452 23.7861C161.054 23.7861 160.708 23.7192 160.414 23.5854C160.142 23.4293 159.953 23.2621 159.848 23.0837C158.862 21.8129 157.426 19.6501 155.538 16.5956C153.42 13.1843 151.69 10.5756 150.348 8.76964C150.515 10.375 150.599 12.337 150.599 14.6558C150.599 15.6814 150.578 17.0192 150.536 18.6691C150.515 20.2967 150.473 21.3669 150.41 21.8798C150.327 22.5263 150.138 23.028 149.844 23.3847C149.572 23.7192 149.131 23.8864 148.523 23.8864C148.062 23.8864 147.716 23.7526 147.485 23.4851C147.275 23.1952 147.149 22.7047 147.107 22.0135C147.086 21.0994 147.139 19.7282 147.265 17.8999C147.286 17.61 147.317 17.1084 147.359 16.3949C147.401 15.6814 147.422 15.046 147.422 14.4886C147.422 12.9502 147.348 11.1888 147.202 9.20441C147.076 7.01939 147.013 5.40292 147.013 4.355C147.013 3.8199 147.191 3.40742 147.548 3.11757C147.925 2.82772 148.355 2.68279 148.838 2.68279C149.257 2.68279 149.697 2.79427 150.159 3.01724C151.962 5.42522 154.406 9.01489 157.489 13.7863L160.446 18.6022C160.467 18.2455 160.477 17.7438 160.477 17.0972C160.477 15.9601 160.456 14.7338 160.414 13.4184C160.372 12.1029 160.341 11.2111 160.32 10.7428C160.215 8.58012 160.163 6.6738 160.163 5.02389ZM140.248 9.47192C140.248 8.15644 140.279 6.78523 140.342 5.35828L140.971 5.32484C141.831 5.32484 142.408 5.21336 142.702 4.9904C143.016 4.74514 143.173 4.24348 143.173 3.48541C143.173 3.17326 142.848 2.9726 142.198 2.88341C141.569 2.79423 140.615 2.74963 139.336 2.74963C137.679 2.74963 136.441 2.83882 135.623 3.01719C134.827 3.19556 134.428 3.59689 134.428 4.22118C134.428 4.77858 134.501 5.14647 134.648 5.32484C134.816 5.50321 135.131 5.59239 135.592 5.59239C135.99 5.59239 136.546 5.5701 137.259 5.5255L137.196 7.36493C137.133 9.03714 137.102 10.3526 137.102 11.3113C137.102 13.095 137.165 15.0571 137.291 17.1975L137.448 21.1439L136.41 21.077L135.749 21.0436C135.33 21.0436 135.005 21.1105 134.774 21.2443C134.543 21.378 134.428 21.6345 134.428 22.0135C134.428 22.5263 134.554 22.9165 134.806 23.184C135.057 23.4293 135.508 23.5965 136.158 23.6857C136.808 23.7749 137.784 23.8195 139.084 23.8195C140.258 23.8195 141.15 23.786 141.758 23.7191C142.387 23.63 142.827 23.4962 143.079 23.3178C143.331 23.1394 143.457 22.883 143.457 22.5486C143.457 22.0358 143.32 21.6567 143.048 21.4115C142.775 21.1662 142.408 21.0436 141.947 21.0436C141.821 21.0436 141.632 21.0659 141.38 21.1105C141.15 21.1551 140.929 21.1885 140.72 21.2108C140.72 20.2075 140.688 19.1038 140.625 17.8998C140.562 16.6736 140.521 15.8598 140.5 15.4584C140.332 12.8275 140.248 10.832 140.248 9.47192ZM131.656 20.6757C131.971 20.6757 132.222 20.8206 132.411 21.1105C132.621 21.4003 132.726 21.7125 132.726 22.0469C132.726 22.6266 132.516 23.0725 132.096 23.3847C131.698 23.6745 131.174 23.8195 130.524 23.8195C129.559 23.8195 128.783 23.6411 128.196 23.2844C127.608 22.9276 127.084 22.2587 126.623 21.2777C126.476 20.921 126.298 20.3413 126.088 19.5386C125.899 18.736 125.7 18.1005 125.49 17.6323C125.301 17.1418 124.976 16.7293 124.515 16.3949C124.075 16.0604 123.466 15.8821 122.69 15.8598L121.998 15.8932C121.285 15.9378 120.75 15.9601 120.394 15.9601C119.974 15.9601 119.576 15.9266 119.199 15.8598C119.24 18.8028 119.261 21.0548 119.261 22.6155C119.261 23.0168 119.073 23.3512 118.695 23.6188C118.339 23.8864 117.93 24.0201 117.468 24.0201C116.923 24.0201 116.493 23.7972 116.179 23.3512C115.927 22.8161 115.801 22.0246 115.801 20.9767C115.801 20.62 115.822 20.1072 115.864 19.4383L115.895 17.9667C115.895 16.6067 115.948 15.1463 116.053 13.5855C116.137 11.8019 116.179 10.4975 116.179 9.67258C116.179 8.9814 116.116 8.05611 115.99 6.89671C115.969 6.67375 115.937 6.31701 115.895 5.8265C115.853 5.31369 115.832 4.85662 115.832 4.45529C115.832 4.16544 115.948 3.89789 116.179 3.65263C116.409 3.40737 116.64 3.2513 116.871 3.18441C118.59 2.89456 120.289 2.74963 121.967 2.74963C124.693 2.74963 126.927 3.29589 128.668 4.3884C130.408 5.48091 131.279 7.15312 131.279 9.40503C131.279 10.0739 131.111 10.7762 130.775 11.512C130.461 12.2255 130.062 12.7829 129.58 13.1842C128.762 13.9423 127.881 14.4328 126.937 14.6558C126.979 14.7004 127.21 14.9233 127.629 15.3246C128.049 15.726 128.332 16.1496 128.479 16.5955L128.888 17.9333C129.244 19.0258 129.527 19.7839 129.737 20.2075C129.947 20.6088 130.219 20.8095 130.555 20.8095C130.87 20.8095 131.058 20.7872 131.121 20.7426C131.205 20.698 131.383 20.6757 131.656 20.6757ZM119.167 13.017C119.796 13.0616 120.237 13.0839 120.488 13.0839C120.866 13.0839 121.39 13.0616 122.061 13.017L123.54 12.9836C124.19 12.9836 124.861 12.8275 125.553 12.5153C126.245 12.2032 126.822 11.7684 127.283 11.211C127.745 10.6313 127.975 9.98473 127.975 9.27125C127.975 8.00037 127.493 7.07508 126.528 6.49538C125.564 5.91568 124.064 5.62583 122.03 5.62583C121.254 5.62583 120.341 5.73732 119.293 5.96028C119.335 6.76294 119.356 7.34264 119.356 7.69937C119.356 8.123 119.335 8.75844 119.293 9.60569L119.261 10.5756C119.199 11.512 119.167 12.3258 119.167 13.017ZM103.492 16.1942C104.058 16.2388 104.75 16.2611 105.568 16.2611C107.078 16.2611 108.378 15.9378 109.469 15.2912C110.559 14.6447 111.388 13.7417 111.954 12.5823C112.52 11.4229 112.803 10.0963 112.803 8.60241C112.803 7.88894 112.279 6.66265 111.23 4.92355C110.266 4.0986 109.301 3.50775 108.336 3.15101C107.392 2.79427 106.061 2.61591 104.341 2.61591C103.775 2.61591 102.946 2.70509 101.856 2.88346C100.807 3.06183 100.042 3.15101 99.5593 3.15101C99.1189 3.1956 98.7519 3.41856 98.4583 3.8199C98.1856 4.22123 98.0388 4.57796 98.0179 4.89011C98.1647 7.09743 98.2381 9.44967 98.2381 11.9468C98.2381 14.6224 98.1227 17.231 97.892 19.7728C97.7872 20.9545 97.7347 21.8686 97.7347 22.5152C97.7347 23.0057 97.9025 23.3513 98.2381 23.552C98.5736 23.7303 99.0875 23.8195 99.7795 23.8195C100.157 23.8195 100.493 23.6634 100.786 23.3513C101.101 23.0169 101.258 22.5598 101.258 21.9801C101.258 20.8653 101.269 20.0069 101.29 19.4049L101.321 15.8932C102.223 16.027 102.946 16.1274 103.492 16.1942ZM103.083 5.59244C103.586 5.50325 104.173 5.45866 104.844 5.45866C105.788 5.45866 106.522 5.55899 107.046 5.75966C107.592 5.93803 108.147 6.29477 108.714 6.82987C108.861 6.98595 109.028 7.30924 109.217 7.79975C109.406 8.29027 109.5 8.70275 109.5 9.03719C109.5 10.1743 109.175 11.1776 108.525 12.0472C107.896 12.8944 106.805 13.318 105.253 13.318C104.603 13.318 104.016 13.2957 103.492 13.2512C102.967 13.1843 102.254 13.0505 101.352 12.8498C101.415 12.2032 101.447 11.4006 101.447 10.4418C101.447 9.50541 101.405 8.01157 101.321 5.96032C102.013 5.78195 102.6 5.65932 103.083 5.59244Z" fill="black"/>
</svg>
